HIERARCHY
ROOT Hips
{
	OFFSET 0.00000 0.00000 0.00000
	CHANNELS 6 Xposition Yposition Zposition Zrotation Yrotation Xrotation 
	JOINT LHipJoint
	{
		OFFSET 0 0 0
		CHANNELS 3 Zrotation Yrotation Xrotation
		JOINT LeftHip
		{
			OFFSET 1.28366 -1.58472 0.87544
			CHANNELS 3 Zrotation Yrotation Xrotation
			JOINT LeftKnee
			{
				OFFSET 2.18587 -6.00562 0.00000
				CHANNELS 3 Zrotation Yrotation Xrotation
				JOINT LeftAnkle
				{
					OFFSET 2.39085 -6.56880 0.00000
					CHANNELS 3 Zrotation Yrotation Xrotation
					JOINT LeftToe
					{
						OFFSET 0.12003 -0.32979 2.03101
						CHANNELS 3 Zrotation Yrotation Xrotation
						End Site
						{
							OFFSET 0.00000 -0.00000 1.04074
						}
					}
				}
			}
		}
	}
	JOINT RHipJoint
	{
		OFFSET 0 0 0
		CHANNELS 3 Zrotation Yrotation Xrotation
		JOINT RightHip
		{
			OFFSET -1.21795 -1.58472 0.87544
			CHANNELS 3 Zrotation Yrotation Xrotation
			JOINT RightKnee
			{
				OFFSET -2.22714 -6.11902 0.00000
				CHANNELS 3 Zrotation Yrotation Xrotation
				JOINT RightAnkle
				{
					OFFSET -2.40306 -6.60235 0.00000
					CHANNELS 3 Zrotation Yrotation Xrotation
					JOINT RightToe
					{
						OFFSET -0.15519 -0.42640 1.91430
						CHANNELS 3 Zrotation Yrotation Xrotation
						End Site
						{
							OFFSET -0.00000 -0.00000 0.99082
						}
					}
				}
			}
		}
	}
	JOINT lowerback
	{
		OFFSET 0 0 0
		CHANNELS 3 Zrotation Yrotation Xrotation
		JOINT Chest
		{
			OFFSET 0.01180 1.76430 -0.06387
			CHANNELS 3 Zrotation Yrotation Xrotation
			JOINT Chest2
			{
				OFFSET -0.00388 1.74651 0.09536
				CHANNELS 3 Zrotation Yrotation Xrotation
				JOINT lowerneck
				{
					OFFSET 0 0 0
					CHANNELS 3 Zrotation Yrotation Xrotation
					JOINT Neck
					{
						OFFSET 0.04111 1.46174 0.14397
						CHANNELS 3 Zrotation Yrotation Xrotation
						JOINT Head
						{
							OFFSET 0.00502 1.44580 -0.31711
							CHANNELS 3 Zrotation Yrotation Xrotation
							End Site
							{
								OFFSET -0.00395 1.49251 -0.12327
							}
						}
					}
				}
				JOINT LeftCollar
				{
					OFFSET 0 0 0
					CHANNELS 3 Zrotation Yrotation Xrotation
					JOINT LeftShoulder
					{
						OFFSET 2.70917 1.34870 -0.15417
CHANNELS 3 Zrotation Xrotation Yrotation
						JOINT LeftElbow
						{
OFFSET 0 -4.466100 -0.000000
CHANNELS 3 Zrotation Xrotation Yrotation
							JOINT LeftWrist
							{
OFFSET 0 -3.414140 0.000000
CHANNELS 3 Zrotation Xrotation Yrotation
								JOINT lhand
								{
									OFFSET 0 0 0
CHANNELS 3 Zrotation Xrotation Yrotation
									JOINT LFingers
									{
OFFSET 0 -0.328300 0.000000
CHANNELS 3 Zrotation Xrotation Yrotation
										End Site
										{
OFFSET 0 -0.264680 0.000000
										}
									}
								}
								JOINT LThumb
								{
OFFSET 0 0.000000 0.000000
CHANNELS 3 Zrotation Xrotation Yrotation
									End Site
									{
OFFSET 0 -0.268720 0.268720
									}
								}
							}
						}
					}
				}
				JOINT RightCollar
				{
					OFFSET 0 0 0
					CHANNELS 3 Zrotation Yrotation Xrotation
					JOINT RightShoulder
					{
						OFFSET -3.06316 1.13725 -0.10883
CHANNELS 3 Zrotation Xrotation Yrotation
						JOINT RightElbow
						{
OFFSET 0 -4.404310 0.000000
CHANNELS 3 Zrotation Xrotation Yrotation
							JOINT RightWrist
							{
OFFSET 0 -3.046880 0.000000
CHANNELS 3 Zrotation Xrotation Yrotation
								JOINT rhand
								{
									OFFSET 0 0 0
CHANNELS 3 Zrotation Xrotation Yrotation
									JOINT RFingers
									{
OFFSET 0 -0.500490 0.000000
CHANNELS 3 Zrotation Xrotation Yrotation
										End Site
										{
OFFSET 0 -0.403510 0.000000
										}
									}
								}
								JOINT RThumb
								{
OFFSET 0 0.000000 0.000000
CHANNELS 3 Zrotation Xrotation Yrotation
									End Site
									{
OFFSET 0 -0.409670 0.409670
									}
								}
							}
						}
					}
				}
			}
		}
	}
}
MOTION
Frames: 7
Frame Time: 0.008333333333333333
1.527100 12.906000 12.035900 -176.382000 -0.513400 -175.272000 0.000000 0.000000 0.000000 -14.569600 22.702300 -49.888000 16.985800 19.780800 81.156000 4.420400 -5.148000 -38.861600 0.014400 0.773500 2.125800 0.000000 0.000000 0.000000 20.576600 -27.257400 -56.833600 -17.171800 -19.807100 81.705200 -3.218000 1.104300 -33.732000 -0.136200 -2.378600 6.553100 0.652100 2.058400 4.132700 -0.135100 2.561100 -6.079600 -0.786700 1.097400 -8.677400 1.114100 1.241600 -18.566400 6.720300 -0.881300 21.512800 2.016700 0.249500 9.965600 0.000000 0.000000 0.000000 89.240300 3.363700 -30.620500 20.578000 -31.332500 5.829000 58.398800 -26.611700 8.394600 0.000000 0.000000 0.000000 -7.125000 0.000000 0.000000 21.247100 14.899700 16.246100 0.000000 0.000000 0.000000 -79.422000 8.375400 33.206300 -21.154300 -32.008000 -6.131500 -60.949500 -44.629200 -25.264100 0.000000 0.000000 0.000000 7.125000 0.000000 -0.000000 -17.636600 -12.417700 -21.955700
1.534419 12.913544 12.020488 -176.419718 -0.459583 -175.321755 0.000000 0.000000 0.000000 -14.534315 22.804863 -49.703197 16.943352 19.774479 81.030654 4.407620 -5.205030 -38.793101 0.015774 0.810382 2.227132 0.000000 0.000000 0.000000 20.375836 -27.264162 -56.643165 -17.183989 -19.808798 81.741267 -3.180458 1.517609 -33.420108 -0.147074 -2.471615 6.810848 0.799781 2.068507 4.095446 -0.095495 2.588749 -6.075748 -0.828869 1.102809 -8.645902 1.142157 1.276858 -18.470184 6.683797 -0.798182 21.294890 2.006242 0.285363 9.866591 0.000000 0.000000 0.000000 89.135797 3.418894 -30.319246 20.572687 -31.326125 5.826167 58.602897 -26.022721 7.927866 0.000000 0.000000 0.000000 -7.125000 0.000000 0.000000 21.520926 15.618652 16.127867 0.000000 0.000000 0.000000 -79.725514 8.210111 32.738160 -21.141529 -31.993162 -6.124778 -60.853972 -44.649467 -25.047048 0.000000 0.000000 0.000000 7.125000 0.000000 0.000000 -17.653501 -12.059254 -21.895532
1.542433 12.919791 12.005724 -176.471381 -0.518808 -175.260693 0.000000 0.000000 0.000000 -14.554799 22.771865 -49.686339 16.924969 19.771753 80.976255 4.377804 -5.236698 -38.648810 0.017296 0.848801 2.332828 0.000000 0.000000 0.000000 20.254833 -27.326504 -56.634657 -17.205152 -19.811644 81.803759 -3.148659 1.829141 -33.168347 -0.154182 -2.530110 6.973220 0.951542 2.042270 4.015880 -0.052448 2.560543 -6.137004 -0.862799 1.076866 -8.661452 0.982242 1.118776 -18.461208 6.566063 -0.930430 21.272435 1.973164 0.199936 9.859306 0.000000 0.000000 0.000000 89.014718 3.486477 -30.133459 20.649990 -31.417479 5.866369 58.434253 -25.332108 7.374145 0.000000 0.000000 0.000000 -7.125000 0.000000 0.000000 21.605432 16.620683 15.689908 0.000000 0.000000 0.000000 -80.058011 7.937494 32.290589 -21.037139 -31.871628 -6.069527 -60.491031 -44.066305 -24.805627 0.000000 0.000000 0.000000 7.125000 0.000000 0.000000 -17.536269 -11.465989 -21.598084
1.555261 12.924142 11.994722 -176.575933 -0.578622 -175.151748 0.000000 0.000000 0.000000 -14.642058 22.719252 -49.748152 16.908797 19.769332 80.928417 4.353750 -5.256949 -38.532842 0.019521 0.901565 2.478063 0.000000 0.000000 0.000000 20.099828 -27.185450 -56.625993 -17.229471 -19.814968 81.875514 -3.113624 1.589682 -33.038649 -0.098671 -2.024930 5.574535 0.991229 2.014980 3.942230 -0.032997 2.518834 -6.210330 -0.857988 1.050007 -8.697784 0.802228 0.972633 -18.589249 6.492682 -1.065565 21.352444 1.961830 0.120048 9.914890 0.000000 0.000000 0.000000 88.906207 3.478485 -29.847262 20.659744 -31.428980 5.871482 58.079655 -24.523643 6.750601 0.000000 0.000000 0.000000 -7.125000 0.000000 0.000000 21.602081 17.795309 15.080532 0.000000 0.000000 0.000000 -80.294659 7.701336 32.008123 -20.874367 -31.681418 -5.983831 -60.081479 -43.448707 -24.594834 0.000000 0.000000 0.000000 7.125000 0.000000 0.000000 -17.384288 -10.882204 -21.255968
1.570349 12.926093 11.988817 -176.662816 -0.636084 -175.085184 0.000000 0.000000 0.000000 -14.676642 22.676520 -49.780436 16.896540 19.767506 80.892219 4.338144 -5.283758 -38.455320 0.019800 0.908117 2.496142 0.000000 0.000000 0.000000 19.956018 -26.930586 -56.518497 -17.243867 -19.816896 81.917905 -3.106291 1.426116 -33.041114 -0.073511 -1.749021 4.812632 1.023099 2.014606 3.943771 -0.026089 2.519183 -6.236267 -0.869016 1.046715 -8.726060 0.750686 0.912532 -18.770662 6.402156 -1.095461 21.301048 1.936344 0.100515 9.930261 0.000000 0.000000 0.000000 88.701256 3.360995 -29.348444 20.710460 -31.488837 5.897928 57.891709 -23.963815 6.110007 0.000000 0.000000 0.000000 -7.125000 0.000000 0.000000 21.705733 18.939356 14.564377 0.000000 0.000000 0.000000 -80.361040 7.648541 31.795249 -20.796824 -31.590428 -5.943211 -59.740723 -43.068227 -24.407998 0.000000 0.000000 0.000000 7.125000 0.000000 0.000000 -17.260742 -10.384761 -20.972690
1.586204 12.930818 11.983205 -176.711179 -0.787378 -175.073908 0.000000 0.000000 0.000000 -14.650323 22.559411 -49.725433 16.869338 19.763405 80.811683 4.325487 -5.270735 -38.398030 0.019809 0.909588 2.500065 0.000000 0.000000 0.000000 19.862174 -26.786394 -56.387098 -17.248177 -19.817477 81.930532 -3.102864 1.422274 -33.023233 -0.075577 -1.773531 4.880053 1.102258 1.990456 3.943546 -0.035295 2.492111 -6.241645 -0.919827 1.027665 -8.728395 0.769919 0.917016 -18.784009 6.372118 -1.057826 21.101867 1.925597 0.118953 9.860154 0.000000 0.000000 0.000000 88.563363 3.178198 -29.083026 20.697219 -31.473138 5.891087 57.853554 -23.540365 5.593595 0.000000 0.000000 0.000000 -7.125000 0.000000 0.000000 21.861151 19.828827 14.210914 0.000000 0.000000 0.000000 -80.249630 7.623589 31.608336 -20.793987 -31.587073 -5.941682 -59.368455 -42.587624 -24.347313 0.000000 0.000000 0.000000 7.125000 0.000000 0.000000 -17.081979 -10.036273 -20.652864
1.601870 12.938650 11.976039 -176.786197 -0.946081 -175.117725 0.000000 0.000000 0.000000 -14.639024 22.416808 -49.548049 16.815925 19.755150 80.653864 4.313302 -5.125600 -38.364188 0.015922 0.814759 2.239222 0.000000 0.000000 0.000000 19.707982 -26.709107 -56.190729 -17.242708 -19.816758 81.914565 -3.104078 1.575471 -32.990129 -0.093579 -1.972833 5.430502 1.113528 1.968308 3.922782 -0.037872 2.460141 -6.266354 -0.924850 1.009808 -8.743190 0.909571 0.966097 -18.658881 6.244755 -0.983558 21.003945 1.865169 0.147915 9.798616 0.000000 0.000000 0.000000 88.362890 3.023987 -28.884502 20.707753 -31.485640 5.896565 57.812761 -23.189327 5.273495 0.000000 0.000000 0.000000 -7.125000 0.000000 0.000000 21.948001 20.384720 13.976666 0.000000 0.000000 0.000000 -80.048733 7.594644 31.521543 -20.802199 -31.596708 -5.945968 -59.142553 -42.169113 -24.353692 0.000000 0.000000 0.000000 7.125000 0.000000 0.000000 -16.960149 -9.884289 -20.456311
